<svg width="97" height="44" viewBox="0 0 97 44" fill="none" xmlns="http://www.w3.org/2000/svg">
<g clip-path="url(#clip0_892_1237)">
<path d="M57.7146 17.4784L56.3984 16.7201L55.0821 15.959L53.7658 15.1987L52.4495 14.4404L49.817 12.9182L48.5007 12.1606L47.1844 12.9182L45.8682 13.6793L47.1844 14.4404L48.5007 15.1987L49.817 15.959L51.1333 16.7201L52.4495 17.4784L53.7658 18.2388L55.0821 18.9999L56.3984 19.7582L55.0821 20.5186L53.7658 21.2797L52.4495 22.0379L51.1333 22.7983L49.817 23.5594L48.5007 24.3177L47.1844 23.5594L45.8682 22.7983L44.5519 22.0379L43.2356 21.2797L41.9193 20.5186L40.6031 19.7582L41.9193 18.9999L43.2356 18.2388L44.5519 17.4784L45.8682 16.7201L44.5519 15.959L43.2356 15.1987L41.9193 15.959L40.6031 16.7201L39.2868 17.4784L37.9705 18.2388L36.6542 18.9999V20.5186L37.9705 21.2797L39.2868 22.0379L40.6031 22.7983L41.9193 23.5594L43.2356 24.3177L44.5519 25.0781L45.8682 25.8392L47.1844 26.5975L48.5007 27.3586L49.817 26.5975L51.1333 25.8392L52.4495 25.0781L53.7658 24.3177L55.0821 23.5594L56.3984 22.7983L57.7146 22.0379L59.0309 21.2797L60.3472 20.5186V18.9999L59.0309 18.2388L57.7146 17.4784Z" fill="#9B5424"/>
<path d="M48.5007 21.2797L49.817 20.5186L51.1333 19.7582L49.817 18.9999L48.5007 18.2388L47.1844 18.9999L45.8682 19.7582L47.1844 20.5186L48.5007 21.2797Z" fill="#9B5424"/>
<path d="M49.8169 9.88083L51.1332 10.6384L52.4495 11.3995L53.7658 12.1606L55.0821 12.9182L56.3983 13.6793L57.7146 14.4404L59.0309 15.1986L60.3471 15.959V14.4404V12.9182L59.0309 12.1606L57.7146 11.3995L56.3983 10.6384L55.0821 9.88083L53.7658 9.11974L52.4495 8.35865L51.1332 7.60037L49.8169 6.83998L48.5007 6.07889V9.11974L49.8169 9.88083Z" fill="#CE763C"/>
<path d="M59.0309 6.0789L57.7146 5.32062L56.3983 4.56023L55.0821 3.79914L53.7658 3.04086L52.4495 2.28047L51.1332 1.51938L49.8169 0.761092L48.5007 0.000701904V3.04086L49.8169 3.79914L52.4495 5.32062L53.7658 6.0789L55.0821 6.83999L56.3983 7.60038L57.7146 8.35867L59.0309 9.11976L60.3471 9.88085V8.35867V6.83999L59.0309 6.0789Z" fill="#CE763C"/>
<path d="M39.2861 11.3995L40.6023 10.6384L41.9186 9.88014L44.5511 8.35866L45.8674 7.60038L47.1837 6.83999L48.5 6.0789V9.11975L47.1837 9.88014L45.8674 10.6384L44.5511 11.3995L43.2349 12.1599L41.9186 12.9182L39.2861 14.4397L37.9698 15.198L36.6535 15.959V6.83999L37.9698 6.0789L39.2861 5.32062L41.9186 3.79914L43.2349 3.04085L44.5511 2.28046L45.8674 1.51937L47.1837 0.761089L48.5 0V3.04085L47.1837 3.79914L44.5511 5.32062L43.2349 6.0789L41.9186 6.83999L40.6023 7.60038L39.2861 8.35866V11.3995Z" fill="#EB7F33"/>
<path d="M8.95197 36.4713L7.90275 37.3722C7.28572 36.6688 6.49582 36.323 5.54568 36.323C4.68198 36.323 3.95322 36.6189 3.37344 37.1994C2.79366 37.7792 2.50975 38.5072 2.50975 39.3836C2.50975 40.2599 2.79366 40.988 3.37344 41.5677C3.95322 42.1475 4.68128 42.4314 5.54568 42.4314C6.52041 42.4314 7.32227 42.0737 7.92734 41.3576L8.96392 42.2586C8.12482 43.2459 6.89077 43.8257 5.54568 43.8257C4.27438 43.8257 3.18791 43.4062 2.29962 42.5671C1.42327 41.7153 0.979126 40.6542 0.979126 39.3829C0.979126 38.1123 1.42327 37.0504 2.29962 36.1993C3.18791 35.3483 4.27438 34.9287 5.54568 34.9287C6.91536 34.9294 8.05103 35.4474 8.95197 36.4713Z" fill="#EB7F33"/>
<path d="M11.5867 43.6788V35.0777H13.1299V42.2846H16.5482V43.6796H11.5867V43.6788Z" fill="#EB7F33"/>
<path d="M18.7598 43.6788L23.0171 34.6575L27.2625 43.6788H25.6208L24.8555 42.0126H21.1534L20.3881 43.6788H18.7598ZM21.7346 40.6795H24.2765L23.0052 37.8782L21.7346 40.6795Z" fill="#EB7F33"/>
<path d="M29.7573 43.6788V34.7566L35.619 40.5073V35.0777H37.1616V44L31.2998 38.2739V43.6788H29.7573Z" fill="#EB7F33"/>
<path d="M43.1913 43.6788V35.0777H46.2645C47.6833 35.0777 48.7944 35.4727 49.5843 36.2745C50.3862 37.0644 50.7811 38.101 50.7811 39.3962C50.7811 40.6921 50.3862 41.7287 49.5963 42.5059C48.8064 43.2832 47.6953 43.6781 46.2764 43.6781H43.1913V43.6788ZM44.7339 42.2839H46.1654C48.3004 42.2839 49.2379 41.1609 49.2379 39.3962C49.2379 37.5824 48.3123 36.4713 46.1527 36.4713H44.7332V42.2839H44.7339Z" fill="#9B5424"/>
<path d="M53.6737 43.6788V35.0777H59.1531V36.472H55.2163V38.5206H58.9065V39.9149H55.2163V42.2846H59.2396V43.6796H53.6737V43.6788Z" fill="#9B5424"/>
<path d="M62.272 43.6788V35.0777H65.5546C66.2827 35.0777 66.937 35.3371 67.5048 35.855C68.0726 36.3729 68.3559 37.0518 68.3559 37.8789C68.3559 38.6808 68.0719 39.3477 67.5048 39.8783C66.9496 40.4089 66.2954 40.6682 65.5546 40.6682H63.8146V43.6796H62.272V43.6788ZM63.8153 39.2732H65.4816C66.1724 39.2732 66.8266 38.7672 66.8266 37.8782C66.8266 36.9773 66.1724 36.4713 65.4816 36.4713H63.8153V39.2732Z" fill="#9B5424"/>
<path d="M70.9694 43.6788V35.0777H72.512V42.2846H75.9302V43.6796H70.9694V43.6788Z" fill="#9B5424"/>
<path d="M79.125 42.5685C78.2487 41.7167 77.8045 40.6556 77.8045 39.3962C77.8045 38.1376 78.2487 37.0764 79.125 36.2246C80.0006 35.3609 81.0752 34.9294 82.3458 34.9294C83.6171 34.9294 84.6909 35.3609 85.5672 36.2246C86.4555 37.0764 86.8997 38.1376 86.8997 39.3962C86.8997 40.6549 86.4548 41.7167 85.5792 42.5685C84.7028 43.4195 83.6171 43.8517 82.3458 43.8517C81.0752 43.851 80.0013 43.4195 79.125 42.5685ZM80.1862 41.5804C80.7659 42.1602 81.494 42.4567 82.3458 42.4567C83.1975 42.4567 83.9129 42.1602 84.4934 41.5804C85.0732 40.988 85.369 40.2599 85.369 39.3962C85.369 38.5325 85.0732 37.8044 84.4934 37.212C83.9129 36.6196 83.1975 36.3237 82.3458 36.3237C81.4947 36.3237 80.7659 36.6196 80.1862 37.212C79.6057 37.8044 79.3225 38.5325 79.3225 39.3962C79.3225 40.2726 79.6064 41.0006 80.1862 41.5804Z" fill="#9B5424"/>
<path d="M91.3931 43.6788V40.347L88.296 35.0777H89.9616L92.1704 38.8663L94.3672 35.0777H96.0208L92.9237 40.347V43.6788H91.3931Z" fill="#9B5424"/>
</g>
<defs>
<clipPath id="clip0_892_1237">
<rect width="95.0417" height="44" fill="white" transform="translate(0.979126)"/>
</clipPath>
</defs>
</svg>
